<?xml version="1.0" encoding="utf-8"?><svg xmlns="http://www.w3.org/2000/svg" xmlns:xlink="http://www.w3.org/1999/xlink"><symbol viewBox="0 0 24 24" id="arm" xmlns="http://www.w3.org/2000/svg"><path fill="none" stroke="currentColor" stroke-linecap="round" stroke-linejoin="round" stroke-width="1.5" d="M2.017 20.305c1.13 1.614 6.042 2.882 8.362-.14 2.51 1.2 6.65.828 10.02-1.052.468-.261.912-.591 1.183-1.054.613-1.045.628-2.495-.49-4.634-1.865-4.655-5.218-8.74-6.572-10.383-.278-.254-2.052-.614-3.133-.96-.478-.147-1.367-.246-2.431 1.156-.505.665-2.796 2.297.111 3.395.45.115.782.326 2.836-.05.268-.046.936 0 1.407.827l.983 1.406a.96.96 0 0 1 .17.44c.172 1.5.166 3.376 1.002 4.326-1.291-.933-4.664-2.042-7.206 1.113M2.001 12.94a6.714 6.714 0 0 1 8.416-.419" color="currentColor"/></symbol><symbol viewBox="0 0 24 24" id="chart" xmlns="http://www.w3.org/2000/svg"><path fill="currentColor" fill-rule="evenodd" d="M9 21.072h12c.41 0 .75-.34.75-.75s-.34-.75-.75-.75H8.999c-2.62 0-3.929 0-4.589-.66s-.66-1.97-.66-4.59v-10c0-.41-.34-.75-.75-.75s-.75.34-.75.75v10c0 3.03 0 4.55 1.1 5.65s2.62 1.1 5.649 1.1zm-3.53-6.22c.15.15.34.22.53.22s.38-.07.53-.22l3.25-3.25c.48-.48.83-.83 1.02-.88.13-.04.26-.04.41 0 .18.05.53.4 1.01.88.72.72 1.11 1.11 1.66 1.26.41.12.84.12 1.23 0 .56-.15.95-.54 1.67-1.26l3.75-3.75c.29-.29.29-.77 0-1.06a.754.754 0 0 0-1.06 0l-3.75 3.75-.002.001c-.48.48-.829.83-1.019.88-.13.04-.26.04-.41 0-.18-.05-.529-.4-1.008-.88h-.002c-.72-.72-1.11-1.11-1.66-1.26-.41-.12-.84-.12-1.23 0-.56.15-.95.54-1.67 1.26l-3.25 3.25c-.29.29-.29.77 0 1.06" color="currentColor"/></symbol><symbol viewBox="0 0 24 24" id="home" xmlns="http://www.w3.org/2000/svg"><g fill="none" stroke="currentColor" stroke-linecap="round" stroke-linejoin="round" stroke-width="1.5" color="currentColor"><path d="M12 17h.009M20 8.5v5c0 3.771 0 5.657-1.172 6.828S15.771 21.5 12 21.5s-5.657 0-6.828-1.172S4 17.271 4 13.5v-5"/><path d="m22 10.5-4.343-4.165C14.99 3.778 13.657 2.5 12 2.5S9.01 3.778 6.343 6.335L2 10.5"/></g></symbol><symbol viewBox="0 0 24 24" id="noteadd" xmlns="http://www.w3.org/2000/svg"><path fill="none" stroke="currentColor" stroke-linecap="round" stroke-linejoin="round" stroke-width="1.5" d="M16 2v2m-5-2v2M6 2v2m13.5 6c0-3.3 0-4.95-1.025-5.975S15.8 3 12.5 3h-3C6.2 3 4.55 3 3.525 4.025S2.5 6.7 2.5 10v5c0 3.3 0 4.95 1.025 5.975S6.2 22 9.5 22h3m5-8v8m4-4h-8M7 15h4m-4-5h8" color="currentColor"/></symbol><symbol viewBox="0 0 24 24" id="refresh" xmlns="http://www.w3.org/2000/svg"><circle cx="12" cy="12" r="3" fill="currentColor"/><path fill="currentColor" d="M12 2a10.02 10.02 0 0 0-7 2.877V3a1 1 0 1 0-2 0v4.5a1 1 0 0 0 1 1h4.5a1 1 0 0 0 0-2H6.218A7.98 7.98 0 0 1 20 12a1 1 0 0 0 2 0A10.01 10.01 0 0 0 12 2m7.989 13.5h-4.5a1 1 0 0 0 0 2h2.293A7.98 7.98 0 0 1 4 12a1 1 0 0 0-2 0 9.986 9.986 0 0 0 16.989 7.133V21a1 1 0 0 0 2 0v-4.5a1 1 0 0 0-1-1" opacity=".5"/></symbol><symbol class="fsize-[1.2em]" viewBox="0 0 24 24" id="settings" xmlns="http://www.w3.org/2000/svg"><g fill="none" stroke="currentColor" stroke-linecap="square" stroke-miterlimit="10" stroke-width="2"><circle cx="12" cy="12" r="3"/><path d="M22 13.25v-2.5l-2.318-.966A7.953 7.953 0 0 0 19 8.13l.954-2.318-1.768-1.768-2.318.954a7.931 7.931 0 0 0-1.654-.682l-.966-2.318h-2.5l-.966 2.318a7.953 7.953 0 0 0-1.654.682L5.81 4.044 4.042 5.812l.954 2.318a7.931 7.931 0 0 0-.682 1.654l-2.318.966v2.5l2.318.966c.167.581.395 1.135.682 1.654l-.954 2.318 1.768 1.768 2.318-.954a7.931 7.931 0 0 0 1.654.682l.966 2.318h2.5l.966-2.318a7.953 7.953 0 0 0 1.654-.682l2.318.954 1.768-1.768L19 15.87a7.931 7.931 0 0 0 .682-1.654L22 13.25Z"/></g></symbol></svg>