<?xml version="1.0" encoding="utf-8"?><svg xmlns="http://www.w3.org/2000/svg" xmlns:xlink="http://www.w3.org/1999/xlink"><symbol class="asize-[1.2em]" viewBox="0 0 24 24" id="home" xmlns="http://www.w3.org/2000/svg"><g fill="none" stroke="currentColor" stroke-miterlimit="10" stroke-width="2"><path d="m1 11 11-9 11 9"/><path d="M5 13v7a2 2 0 0 0 2 2h10a2 2 0 0 0 2-2v-7M12 22v-4" stroke-linecap="square"/></g></symbol><symbol viewBox="0 0 24 24" id="refresh" xmlns="http://www.w3.org/2000/svg"><circle cx="12" cy="12" r="3" fill="currentColor"/><path fill="currentColor" d="M12 2a10.02 10.02 0 0 0-7 2.877V3a1 1 0 1 0-2 0v4.5a1 1 0 0 0 1 1h4.5a1 1 0 0 0 0-2H6.218A7.98 7.98 0 0 1 20 12a1 1 0 0 0 2 0A10.01 10.01 0 0 0 12 2m7.989 13.5h-4.5a1 1 0 0 0 0 2h2.293A7.98 7.98 0 0 1 4 12a1 1 0 0 0-2 0 9.986 9.986 0 0 0 16.989 7.133V21a1 1 0 0 0 2 0v-4.5a1 1 0 0 0-1-1" opacity=".5"/></symbol><symbol class="csize-[1.2em]" viewBox="0 0 24 24" id="settings" xmlns="http://www.w3.org/2000/svg"><g fill="none" stroke="currentColor" stroke-linecap="square" stroke-miterlimit="10" stroke-width="2"><circle cx="12" cy="12" r="3"/><path d="M22 13.25v-2.5l-2.318-.966A7.953 7.953 0 0 0 19 8.13l.954-2.318-1.768-1.768-2.318.954a7.931 7.931 0 0 0-1.654-.682l-.966-2.318h-2.5l-.966 2.318a7.953 7.953 0 0 0-1.654.682L5.81 4.044 4.042 5.812l.954 2.318a7.931 7.931 0 0 0-.682 1.654l-2.318.966v2.5l2.318.966c.167.581.395 1.135.682 1.654l-.954 2.318 1.768 1.768 2.318-.954a7.931 7.931 0 0 0 1.654.682l.966 2.318h2.5l.966-2.318a7.953 7.953 0 0 0 1.654-.682l2.318.954 1.768-1.768L19 15.87a7.931 7.931 0 0 0 .682-1.654L22 13.25Z"/></g></symbol></svg>