<?xml version="1.0" encoding="utf-8"?><svg xmlns="http://www.w3.org/2000/svg" xmlns:xlink="http://www.w3.org/1999/xlink"><symbol viewBox="0 0 24 24" id="add" xmlns="http://www.w3.org/2000/svg"><path fill="none" stroke="currentColor" stroke-linecap="round" stroke-linejoin="round" stroke-width="1.5" d="M12 8v8m4-4H8m14 0c0-5.523-4.477-10-10-10S2 6.477 2 12s4.477 10 10 10 10-4.477 10-10" color="currentColor"/></symbol><symbol viewBox="0 0 24 24" id="alert" xmlns="http://www.w3.org/2000/svg"><path fill="none" stroke="currentColor" stroke-linecap="round" stroke-linejoin="round" stroke-width="1.5" d="M5.322 9.683c2.413-4.271 3.62-6.406 5.276-6.956a4.45 4.45 0 0 1 2.804 0c1.656.55 2.863 2.685 5.276 6.956 2.414 4.27 3.62 6.406 3.259 8.146-.2.958-.69 1.826-1.402 2.48C19.241 21.5 16.827 21.5 12 21.5s-7.241 0-8.535-1.19a4.66 4.66 0 0 1-1.402-2.48c-.362-1.74.845-3.876 3.259-8.147M11.992 16h.009M12 13V9" color="currentColor"/></symbol><symbol viewBox="0 0 24 24" id="arm" xmlns="http://www.w3.org/2000/svg"><path fill="none" stroke="currentColor" stroke-linecap="round" stroke-linejoin="round" stroke-width="1.5" d="M2.017 20.305c1.13 1.614 6.042 2.882 8.362-.14 2.51 1.2 6.65.828 10.02-1.052.468-.261.912-.591 1.183-1.054.613-1.045.628-2.495-.49-4.634-1.865-4.655-5.218-8.74-6.572-10.383-.278-.254-2.052-.614-3.133-.96-.478-.147-1.367-.246-2.431 1.156-.505.665-2.796 2.297.111 3.395.45.115.782.326 2.836-.05.268-.046.936 0 1.407.827l.983 1.406a.96.96 0 0 1 .17.44c.172 1.5.166 3.376 1.002 4.326-1.291-.933-4.664-2.042-7.206 1.113M2.001 12.94a6.714 6.714 0 0 1 8.416-.419" color="currentColor"/></symbol><symbol viewBox="0 0 24 24" id="arrow_down" xmlns="http://www.w3.org/2000/svg"><g fill="none" stroke="currentColor" stroke-linecap="round" stroke-linejoin="round" stroke-width="1.5" color="currentColor"><circle cx="12" cy="12" r="10"/><path d="M16 10.5s-2.946 3-4 3-4-3-4-3"/></g></symbol><symbol viewBox="0 0 24 24" id="arrow_right" xmlns="http://www.w3.org/2000/svg"><g fill="none" stroke="currentColor" stroke-linecap="round" stroke-linejoin="round" stroke-width="1.5" color="currentColor"><circle cx="12" cy="12" r="10"/><path d="M10.5 8s3 2.946 3 4-3 4-3 4"/></g></symbol><symbol viewBox="0 0 24 24" id="arrow_up" xmlns="http://www.w3.org/2000/svg"><g fill="none" stroke="currentColor" stroke-linecap="round" stroke-linejoin="round" stroke-width="1.5" color="currentColor"><circle cx="12" cy="12" r="10"/><path d="M16 13.5s-2.946-3-4-3-4 3-4 3"/></g></symbol><symbol viewBox="0 0 24 24" id="chart" xmlns="http://www.w3.org/2000/svg"><path fill="currentColor" fill-rule="evenodd" d="M9 21.072h12c.41 0 .75-.34.75-.75s-.34-.75-.75-.75H8.999c-2.62 0-3.929 0-4.589-.66s-.66-1.97-.66-4.59v-10c0-.41-.34-.75-.75-.75s-.75.34-.75.75v10c0 3.03 0 4.55 1.1 5.65s2.62 1.1 5.649 1.1zm-3.53-6.22c.15.15.34.22.53.22s.38-.07.53-.22l3.25-3.25c.48-.48.83-.83 1.02-.88.13-.04.26-.04.41 0 .18.05.53.4 1.01.88.72.72 1.11 1.11 1.66 1.26.41.12.84.12 1.23 0 .56-.15.95-.54 1.67-1.26l3.75-3.75c.29-.29.29-.77 0-1.06a.754.754 0 0 0-1.06 0l-3.75 3.75-.002.001c-.48.48-.829.83-1.019.88-.13.04-.26.04-.41 0-.18-.05-.529-.4-1.008-.88h-.002c-.72-.72-1.11-1.11-1.66-1.26-.41-.12-.84-.12-1.23 0-.56.15-.95.54-1.67 1.26l-3.25 3.25c-.29.29-.29.77 0 1.06" color="currentColor"/></symbol><symbol viewBox="0 0 24 24" id="home" xmlns="http://www.w3.org/2000/svg"><g fill="none" stroke="currentColor" stroke-linecap="round" stroke-linejoin="round" stroke-width="1.5" color="currentColor"><path d="M15 17c-.8.622-1.85 1-3 1s-2.2-.378-3-1"/><path d="M2.352 13.214c-.354-2.298-.53-3.446-.096-4.465s1.398-1.715 3.325-3.108L7.021 4.6C9.418 2.867 10.617 2 12.001 2c1.382 0 2.58.867 4.978 2.6l1.44 1.041c1.927 1.393 2.89 2.09 3.325 3.108.434 1.019.258 2.167-.095 4.464l-.301 1.96c-.5 3.256-.751 4.884-1.919 5.856S16.554 22 13.14 22h-2.28c-3.415 0-5.122 0-6.29-.971-1.168-.972-1.418-2.6-1.918-5.857z"/></g></symbol><symbol viewBox="0 0 24 24" id="minus" xmlns="http://www.w3.org/2000/svg"><g fill="none" stroke="currentColor" stroke-linecap="round" stroke-linejoin="round" stroke-width="1.5" color="currentColor"><path d="M16 12H8"/><circle cx="12" cy="12" r="10"/></g></symbol><symbol viewBox="0 0 24 24" id="noteadd" xmlns="http://www.w3.org/2000/svg"><path fill="none" stroke="currentColor" stroke-linecap="round" stroke-linejoin="round" stroke-width="1.5" d="M16 2v2m-5-2v2M6 2v2m13.5 6c0-3.3 0-4.95-1.025-5.975S15.8 3 12.5 3h-3C6.2 3 4.55 3 3.525 4.025S2.5 6.7 2.5 10v5c0 3.3 0 4.95 1.025 5.975S6.2 22 9.5 22h3m5-8v8m4-4h-8M7 15h4m-4-5h8" color="currentColor"/></symbol><symbol viewBox="0 0 24 24" id="refresh" xmlns="http://www.w3.org/2000/svg"><g fill="none" stroke="currentColor" stroke-linecap="round" stroke-linejoin="round" stroke-width="1.5" color="currentColor"><circle cx="12" cy="12" r="10"/><path d="m14.4 7.5.915 1.17c.527.673.43.875-.418.875H9.6c-1.462 0-1.6.768-1.6 2.046M9.6 16.5l-.915-1.17c-.526-.673-.43-.876.418-.876H14.4c1.461 0 1.6-.767 1.6-2.045"/></g></symbol><symbol class="lsize-[1.2em]" viewBox="0 0 24 24" id="settings" xmlns="http://www.w3.org/2000/svg"><g fill="none" stroke="currentColor" stroke-linecap="square" stroke-miterlimit="10" stroke-width="2"><circle cx="12" cy="12" r="3"/><path d="M22 13.25v-2.5l-2.318-.966A7.953 7.953 0 0 0 19 8.13l.954-2.318-1.768-1.768-2.318.954a7.931 7.931 0 0 0-1.654-.682l-.966-2.318h-2.5l-.966 2.318a7.953 7.953 0 0 0-1.654.682L5.81 4.044 4.042 5.812l.954 2.318a7.931 7.931 0 0 0-.682 1.654l-2.318.966v2.5l2.318.966c.167.581.395 1.135.682 1.654l-.954 2.318 1.768 1.768 2.318-.954a7.931 7.931 0 0 0 1.654.682l.966 2.318h2.5l.966-2.318a7.953 7.953 0 0 0 1.654-.682l2.318.954 1.768-1.768L19 15.87a7.931 7.931 0 0 0 .682-1.654L22 13.25Z"/></g></symbol></svg>