
<svg
   width="700"
   height="700"
   viewBox="0 15 160 265"
   version="1.1"
   id="svg1"
   xml:space="preserve"
   xmlns="http://www.w3.org/2000/svg"
   xmlns:svg="http://www.w3.org/2000/svg"><defs
     id="defs1" /><g
     id="back-view"
     style="display:inline"><path
       class="outline-human"
       style="display:inline;stroke-width:0.396875;stroke-dasharray:none;paint-order:markers stroke fill"
       d="m 84.687864,18.98831 5.221785,1.139299 2.753304,2.46848 1.614006,4.84202 0.284827,3.987543 -0.284827,3.038131 1.139301,1.80389 -0.09494,2.563421 -0.854474,1.519065 -0.569648,1.993773 v 1.708949 l -1.898833,0.189881 0.379767,5.45914 0.427236,1.614006 6.693382,1.898832 6.78832,6.883263 6.78832,0.901943 3.22801,2.088716 2.91945,3.821396 -1.06809,8.093768 5.93385,8.354856 -0.3323,2.800776 -0.18988,6.693379 0.56965,2.041244 -0.23736,5.649019 2.65837,3.94008 -0.0475,2.32606 2.46848,4.5572 0.4747,4.79455 0.0475,3.60778 -0.61712,2.32607 -0.71207,6.50349 -0.61711,1.42413 1.18677,2.27859 -0.3323,2.61089 -0.47471,2.13619 0.37977,3.27548 0.33229,5.50661 -0.33229,2.18366 -1.04436,3.46537 -1.4716,0.66459 -3.79766,0.0949 -1.70894,-1.42413 c 0,0 -3.27549,-0.0475 -3.22802,-0.23735 0.0475,-0.18988 -0.37976,-5.12684 -0.37976,-5.12684 l 0.85447,-2.37354 -0.14241,-3.27549 1.47159,-2.56342 1.85136,-1.09183 -1.56653,-7.02567 -1.09183,-3.51284 -4.5572,-7.7852 -0.33229,-3.70272 0.23735,-4.84202 0.71207,-2.75331 -1.56654,-2.65836 -3.18054,-2.51595 -2.42101,-3.797665 -2.04124,2.278597 -2.65837,2.800778 -2.04124,1.37665 0.56965,4.69961 0.0949,3.65525 -0.42724,2.04124 1.18677,3.37042 0.37977,3.60778 0.52218,3.60778 -0.47471,1.61401 1.47159,5.22178 1.04436,4.5572 0.14241,4.41478 1.56654,11.58287 0.18988,2.23113 -0.56965,10.11127 -1.66148,5.93385 -1.51906,3.37042 -0.61712,5.45914 -1.99377,2.51595 0.33229,3.46537 3.37043,8.35486 1.89883,5.69649 0.94941,3.32295 0.18989,5.88638 -0.42724,2.08871 -0.90195,1.70895 -1.56653,5.88638 -0.80701,0.56965 -0.4747,2.80078 -0.94942,1.28171 -0.807,3.98754 -0.47471,5.12684 -0.33229,3.65525 -0.474708,3.84514 -0.142412,2.23112 0.284824,2.32607 0.949416,1.28171 1.614,2.2786 2.65837,1.09183 0.807,1.04435 -0.18989,1.61401 -2.08871,0.66459 -2.94319,0.71206 -1.993766,0.75954 -1.80389,0.807 -3.797662,-0.0475 -1.993773,-1.9463 0.04747,-3.94008 -0.189883,-2.37354 0.522179,-0.75953 -0.04747,-2.18365 -0.664591,-3.22802 0.664591,-2.32607 1.044358,-2.94318 -1.139298,-5.31673 -1.139299,-2.89572 -0.712062,-7.12061 -1.186768,-7.3105 c 0,0 -0.807005,-5.31673 -0.854474,-5.55409 -0.04747,-0.23735 -0.759534,-5.45913 -0.759534,-5.45913 l 1.803889,-3.89261 -2.753304,-6.55097 -1.139299,-5.5066 -0.189883,-8.35486 -0.995032,-5.58994 -0.805606,0.36923 -0.03357,3.99447 0.03357,6.81408 -1.409811,6.98192 -1.074142,3.52452 -1.678345,3.35669 1.275543,10.20434 -1.007006,5.70638 -1.141275,9.533 -1.342676,4.7665 -0.671338,4.5651 0.134265,8.59313 0.402805,3.89376 -0.671338,1.87974 0.134268,6.37772 0.335669,2.81962 -1.946881,1.54407 -5.236437,-1.47694 -6.84765,-0.93987 -1.678344,-1.14128 0.939871,-2.88675 3.222424,-1.00701 2.618219,-3.35669 0.537069,-6.31058 -0.671338,-5.10217 -3.088155,-10.40574 -0.805606,-5.16931 -1.678345,-4.63223 -1.74548,-6.78051 v -5.10217 l 1.141275,-5.43784 0.939874,-3.28956 1.812613,-5.84064 -0.134268,-7.45185 -2.148282,-5.63924 c 0,0 -1.946881,-7.25046 -2.081146,-7.72039 -0.134268,-0.46994 0,-6.78052 0,-6.78052 l 0.537069,-11.94982 0.671338,-5.23644 2.28255,-5.70637 0.805606,-4.02803 0.53707,-6.98192 0.201401,-5.23643 0.939874,-2.55109 0.402804,-7.38472 -0.134268,-5.63924 -0.335669,-3.69236 -2.618219,-2.618217 -3.356692,-3.289556 -2.081149,0.939874 -0.872738,2.819619 -4.766501,4.3637 0.201401,5.10217 -0.402802,4.29656 -0.872741,5.50498 -3.155289,4.02803 -3.088155,7.25045 -1.141275,4.02803 0.671338,2.88675 3.021023,3.28956 v 2.95388 l -0.805606,1.54408 v 4.49797 l -1.141275,2.01401 -2.886755,1.67835 -3.625226,0.46993 -3.759493,-3.82662 -0.469937,-4.5651 0.06714,-6.04205 1.141275,-3.69236 -0.872741,-5.3707 1.141274,-3.02102 -1.074139,-13.82957 2.81962,-10.40574 2.081149,-3.088154 0.73847,-9.197335 v -6.847649 l 2.81962,-3.960895 2.282549,-3.02102 1.208411,-7.854656 2.551083,-4.833636 7.720391,-3.558093 3.55809,-0.402802 4.095163,-3.759493 3.558092,-2.014014 4.967902,-2.349685 2.081149,-1.879746 0.335669,-6.310579 -2.28255,-2.081149 -1.544077,-3.155289 0.671338,-3.222424 0.939874,-0.939871 0.469937,-5.504974 1.476944,-4.497965 3.692358,-3.222424 4.296566,-1.007007 z"
       id="outline_back" /><g
       id="muscles-back"
       style="display:inline"><path class="muscle"
         style="stroke-width:0.396875;stroke-dasharray:none;paint-order:markers stroke fill"
         d="m 80.157774,37.863473 2.685354,0.268533 4.833633,-0.134268 -0.134268,2.28255 v 2.416818 l 1.074142,2.014013 0.939874,2.819623 -0.134268,1.745477 2.416818,2.148284 2.953888,1.342676 4.296563,1.208408 2.68535,2.685354 2.81962,2.685351 1.20841,1.476944 -1.34267,0.738473 -0.93988,0.738471 -2.01405,0.939874 -3.289558,-0.201401 -1.275543,1.275541 -1.141275,0.335668 -0.738473,1.275543 0.537072,1.879749 0.469937,1.812612 0.53707,1.342676 -0.604205,1.678345 v 1.141275 l -0.268534,1.275543 -2.752487,3.759493 -2.551086,4.766501 -1.275543,3.289556 -2.28255,3.960898 -2.081146,2.819619 -0.805606,2.685352 -0.268536,2.014016 -1.812613,0.134265 -0.53707,-3.155288 -1.409811,-2.014014 -1.611212,-3.759494 -1.141275,-2.081148 -1.409808,-4.363699 -0.335669,-2.416816 -1.409811,-2.349685 -1.208408,-1.476944 -0.738473,-3.289556 -1.007007,-2.28255 -0.671338,-1.678345 0.268534,-2.215417 -0.671338,-2.48395 -0.469937,-1.879746 -1.544077,-1.678347 -2.551086,1.074142 -1.94688,0.335669 -1.812613,-1.074142 -1.342676,-0.604203 1.074142,-2.215417 1.812613,-1.74548 2.28255,-2.014013 3.759493,-1.275543 4.028028,-2.014014 2.886755,-1.476944 2.215417,-2.28255 -0.06714,-3.356692 1.074142,-2.081146 0.268534,-1.611212 0.469937,-0.805606 z"
         id="traps_b" /><g
         id="shoulders_b" class="muscle"><path
           style="stroke-width:0.396875;stroke-dasharray:none;paint-order:markers stroke fill"
           d="m 97.948235,68.677892 0.268537,-2.618218 1.678344,-2.148282 2.483954,-0.671338 2.21541,-1.074142 1.00701,-0.939872 6.44485,0.134266 2.14828,0.671338 1.47694,1.812615 1.40981,1.611209 0.80561,3.759494 -0.33567,5.639242 -1.07414,0.805606 -1.27554,-1.74548 -1.67835,-1.476944 -1.00701,-1.07414 -7.51898,0.268534 -2.14829,-1.74548 -1.47694,-0.872739 z"
           id="path41" /><path
           style="stroke-width:0.396875;stroke-dasharray:none;paint-order:markers stroke fill"
           d="m 96.806961,70.759041 0.872738,-1.611212 3.021021,0.469937 3.15529,1.611212 0.46994,1.007007 -1.00701,3.356689 -2.68535,4.02803 -1.409812,2.28255 -1.678344,0.201401 0.06713,-3.155289 0.469937,-3.558092 -1.544077,-2.28255 z"
           id="path42" /><path
           style="stroke-width:0.396875;stroke-dasharray:none;paint-order:markers stroke fill"
           d="m 99.358047,82.775993 1.544073,0.939874 2.21542,1.544079 3.96089,1.27554 2.34969,-0.939871 1.27554,-0.939874 -0.0671,-3.759494 -0.2014,-3.826629 -0.33567,-3.289556 -0.87274,-0.469937 -3.22243,2.282549 -3.02102,2.819623 -1.87975,2.349682 z"
           id="path43" /><path
           style="stroke-width:0.396875;stroke-dasharray:none;paint-order:markers stroke fill"
           d="m 104.39308,71.900316 5.16931,-0.134268 v 1.409811 l -1.40981,0.402802 -2.81963,1.879748 -1.54407,1.678345 -1.74548,2.148281 -0.87274,1.074143 -0.46994,-0.537073 1.00701,-1.544076 2.01401,-2.886755 z"
           id="path44" /><path
           style="stroke-width:0.396875;stroke-dasharray:none;paint-order:markers stroke fill"
           d="m 96.269891,73.310125 0.805606,1.409811 0.402801,2.014013 0.06714,2.215417 -0.201404,3.222424 -2.014013,-1.141275 -2.349683,-2.014016 2.014014,-2.349682 1.007007,-1.879749 z"
           id="path45" /><path
           style="stroke-width:0.396875;stroke-dasharray:none;paint-order:markers stroke fill"
           d="m 63.307187,63.105786 -3.289557,-1.544077 -0.268536,-1.275543 -3.893759,0.06713 -3.222424,2.349685 -2.618219,2.752484 -1.544079,2.618219 -1.208408,2.28255 -0.469937,2.819622 0.335669,3.826627 0.06714,1.342675 1.745477,-1.476944 0.805606,-2.48395 2.349685,-2.953888 0.604203,-0.872739 3.826629,0.06713 1.409808,-0.805606 2.081149,-0.469937 1.342676,-0.73847 2.014016,-1.074143 2.081146,-0.469937 1.879749,-1.342675 -1.611212,-1.409811 z"
           id="path46" /><path
           style="stroke-width:0.396875;stroke-dasharray:none;paint-order:markers stroke fill"
           d="m 56.862342,71.027575 -0.671338,2.349685 -0.402805,2.28255 0.06714,2.819619 0.872739,2.618219 0.268536,2.215417 4.22943,-0.134268 1.409809,-1.275543 2.014013,-0.738473 -0.469934,-2.282547 -1.476944,-3.155291 -1.946881,-1.678345 -1.94688,-2.28255 z"
           id="path47" /><path
           style="stroke-width:0.396875;stroke-dasharray:none;paint-order:markers stroke fill"
           d="m 58.27215,70.221972 3.021023,-0.872742 2.215415,-1.342676 2.618218,-0.805606 1.074142,-1.141274 0.939875,0.738473 1.208407,1.544076 0.604205,1.275543 0.06713,2.215415 -0.872739,1.409811 -0.2014,2.416818 -0.537073,1.678345 -0.671338,2.282549 -0.671338,0.872739 -1.812612,0.201403 -0.53707,-1.20841 -0.53707,-2.349682 -1.074142,-1.812613 -1.678345,-1.20841 -1.879748,-2.215415 z"
           id="path48" /><path
           style="stroke-width:0.396875;stroke-dasharray:none;paint-order:markers stroke fill"
           d="m 70.490505,70.960442 0.939874,2.014014 0.671338,2.081149 0.469937,1.476944 0.201401,1.409811 -2.416818,1.275543 -1.812613,0.805603 -0.604202,-0.335669 0.73847,-2.416815 0.469937,-2.215417 0.335669,-1.946881 z"
           id="path49" /></g><g
         id="dorsals" class="muscle"><path
           style="stroke-width:0.396875;stroke-dasharray:none;paint-order:markers stroke fill"
           d="m 85.72988,93.78594 0.872742,1.678345 0.604202,1.879745 1.141275,3.15529 0.939874,2.81962 2.551086,1.27554 v 3.7595 l 0.872739,3.22242 1.879748,0.0671 0.402802,-2.88675 0.872739,-1.27554 -0.402802,-2.88676 2.081149,-1.14127 2.416815,-0.93987 1.476941,-0.93988 3.28956,-3.960893 1.94688,-2.685352 1.40981,-3.088156 1.47695,-1.74548 0.0671,-3.625225 -3.42382,0.872738 -4.5651,-1.94688 -2.416822,-1.544077 -2.752486,-1.476944 -3.423825,-2.416818 -1.544077,2.416818 -1.678347,3.490958 -1.812613,4.296563 z"
           id="path50" /><path
           style="stroke-width:0.396875;stroke-dasharray:none;paint-order:markers stroke fill"
           d="m 80.359178,94.188742 -0.872742,2.618219 -1.007007,2.349685 -2.215417,1.678344 -1.141272,1.54408 -1.611212,1.14127 0.268534,3.42383 0.872741,1.61121 -1.544079,1.34267 h -1.342676 l -0.872739,-2.81962 -1.74548,-2.41681 -1.409811,-2.61822 -1.007007,-1.40981 -3.759493,-2.148285 -3.289557,-2.685351 0.134268,-2.416818 -1.275543,-2.28255 -0.134268,-2.551083 -0.73847,-3.289557 0.335669,-1.20841 2.618218,-0.268536 2.081149,-0.671338 2.215415,-1.544077 2.416818,-0.805606 2.551083,-0.469937 2.551086,-1.409808 0.939874,-0.268536 1.007007,1.007006 0.872739,2.28255 0.805606,2.953888 1.141274,4.02803 1.275543,1.611212 0.53707,2.618218 z"
           id="path51" /></g><g
         id="triceps_b" class="muscle"><path
           style="stroke-width:0.396875;stroke-dasharray:none;paint-order:markers stroke fill"
           d="m 52.767179,71.363246 2.483951,-0.06714 1.007006,0.939874 -0.402801,1.544077 -0.537073,2.416818 0.268537,2.282549 0.469937,2.551086 0.73847,2.953888 0.738474,1.745477 -0.671338,1.745481 v 1.711912 l -0.43637,1.544079 -1.879748,1.846178 -1.711912,1.946881 -2.752487,0.738473 -2.987453,-0.1007 -0.268536,-1.980449 0.671338,-1.779045 -0.234969,-2.853187 0.201401,-2.416818 0.604205,-1.64478 -0.268536,-4.262996 -0.1007,-1.74548 1.544079,-1.208407 0.469937,-2.081149 0.805606,-1.443376 1.342676,-1.074143 z"
           id="path52" /><path
           style="stroke-width:0.396875;stroke-dasharray:none;paint-order:markers stroke fill"
           d="m 46.236535,79.086312 0.807003,-0.30856 0.474707,0.21362 0.142415,1.044355 0.118676,2.658364 0.02373,1.708949 -1.115562,1.115563 -1.637745,2.397273 -0.996884,3.180543 -0.949417,1.566534 -0.427236,2.278597 -1.376654,0.759534 -0.04747,-2.37354 0.569648,-2.800776 -0.189883,-4.557194 0.854474,-2.421008 1.851361,-2.658364 z"
           id="path53" /><path
           style="stroke-width:0.396875;stroke-dasharray:none;paint-order:markers stroke fill"
           d="m 43.055995,103.39135 -0.237356,-2.32607 0.807003,-1.329181 1.519066,-2.183654 1.139298,-1.946304 2.278597,-0.04747 3.370427,0.04747 1.661475,-1.139298 1.044358,-1.661478 1.28171,-0.949415 0.474708,0.617122 -0.522177,1.756418 -1.519065,2.231126 -1.946302,2.421009 -2.326068,1.946305 -1.281711,1.89883 -2.515952,0.90194 h -2.658364 z"
           id="path54" /><path
           style="stroke-width:0.396875;stroke-dasharray:none;paint-order:markers stroke fill"
           d="m 110.27461,72.155578 1.99377,-0.142412 1.23424,0.949415 1.66148,1.898833 1.09183,1.18677 0.90194,0.332295 0.94942,3.465365 0.42724,1.519065 -0.23736,3.370427 0.71207,1.803889 v 2.278597 l -0.23736,2.563421 -0.47471,2.231128 0.42724,2.088713 -1.9463,0.854475 -3.60778,-0.664591 -1.80389,-1.661478 -1.85136,-3.275483 0.71206,-2.183657 -0.14241,-2.800776 1.37665,-1.851361 -0.33229,-4.509722 -0.23736,-3.512838 -0.66459,-2.468481 z"
           id="path55" /><path
           style="stroke-width:0.396875;stroke-dasharray:none;paint-order:markers stroke fill"
           d="m 117.82247,76.000712 1.70894,1.424123 1.61401,2.37354 1.23424,2.848245 0.47471,4.224901 -0.14242,3.75019 0.28483,2.278597 -1.80389,0.189884 -1.18677,-2.895719 -0.71206,-2.943188 -0.61712,-2.800776 0.23735,-2.610892 -0.14241,-1.851359 -0.90194,-1.75642 z"
           id="path56" /><path
           style="stroke-width:0.396875;stroke-dasharray:none;paint-order:markers stroke fill"
           d="m 121.28783,103.77112 -1.32918,-2.51596 -0.61712,-2.231121 -0.28482,-2.183656 -0.71207,-0.61712 -1.89883,0.61712 h -1.9463 l -2.13618,-0.996887 -1.1393,-1.376653 -1.04436,-1.708947 -0.71206,-1.329182 -1.1393,0.427236 0.37977,2.421012 1.47159,1.519063 0.90194,1.898832 1.1393,2.421013 1.99378,2.04124 1.70895,1.70895 2.51594,0.61712 2.37354,0.23735 z"
           id="path57" /></g><g
         id="forearms_b" class="muscle"><path
           style="stroke-width:0.396875;stroke-dasharray:none;paint-order:markers stroke fill"
           d="m 42.818639,103.67617 2.753305,0.37977 0.56965,1.04436 -0.379767,4.93696 -1.519065,6.45602 -2.658361,6.64591 -1.329182,2.84825 -0.189884,2.84825 -1.044358,3.41789 -0.189883,1.89883 -1.329182,0.0949 0.09494,-5.60155 -0.189884,-14.24123 1.614006,-4.65214 1.519066,-3.13307 z"
           id="path58" /><path
           style="stroke-width:0.396875;stroke-dasharray:none;paint-order:markers stroke fill"
           d="m 49.55949,102.53688 0.664591,1.80388 v 8.63969 l -0.474708,2.7533 -1.519065,2.84825 -2.373538,4.65213 -2.278599,4.65214 -0.664591,3.4179 -1.80389,0.56964 0.949418,-4.17742 1.329182,-5.22179 -0.09494,-2.94319 2.37354,-5.79143 0.759531,-5.88638 0.189884,-3.70272 z"
           id="path59" /><path
           style="stroke-width:0.396875;stroke-dasharray:none;paint-order:markers stroke fill"
           d="m 37.976622,104.15088 1.614006,1.1393 0.284824,1.80389 -1.424123,2.84825 -0.854474,2.46848 -0.759532,2.94318 0.379765,3.22802 v 6.45602 l -0.664591,1.61401 -0.854475,-0.94942 -0.09494,-6.07626 -0.664591,-7.02567 0.759531,-4.08249 z"
           id="path60" /><path
           style="stroke-width:0.396875;stroke-dasharray:none;paint-order:markers stroke fill"
           d="m 115.06916,104.05594 2.37354,0.75953 1.32918,1.1393 1.1393,1.1393 -1.61401,1.1393 v 1.80389 l -0.66459,3.22801 0.47471,3.4179 0.94941,2.7533 1.80389,5.79144 0.18989,2.94318 -1.70895,0.75954 -0.66459,-3.13308 -2.37354,-3.41789 -2.65836,-5.60155 -0.0949,-4.08249 0.4747,-4.08249 1.04436,-1.99377 z"
           id="path61" /><path
           style="stroke-width:0.396875;stroke-dasharray:none;paint-order:markers stroke fill"
           d="m 124.27849,107.3789 1.70895,-0.0949 0.94941,2.08872 1.51907,3.13307 0.37977,5.69649 -0.6646,2.18366 0.18989,2.2786 -0.56965,3.79766 -0.85448,1.42412 -0.75953,-0.94942 -0.0949,-4.55719 -0.37977,-3.79766 -0.18988,-4.17743 -0.75953,-4.08249 z"
           id="path62" /><path
           style="stroke-width:0.396875;stroke-dasharray:none;paint-order:markers stroke fill"
           d="m 120.38589,106.7143 1.89883,-0.37976 1.70895,0.56965 -0.0949,1.614 0.85448,2.94319 0.37976,4.65214 0.37977,2.65836 0.37977,3.70272 0.0949,5.41167 0.18988,3.98754 -0.37977,3.22802 -0.56964,1.99377 h -1.89884 l -0.28482,-6.36108 -0.18988,-3.70272 -1.61401,-1.99378 -2.08871,-5.69649 -1.04436,-3.8926 0.37977,-3.4179 0.66459,-3.03813 z"
           id="path63" /></g><g
         id="obliques_b" class="muscle"><path
           style="stroke-width:0.396875;stroke-dasharray:none;paint-order:markers stroke fill"
           d="m 67.335217,102.37907 -0.469937,2.75248 -0.402802,3.22243 -0.604205,2.21541 0.268533,2.41682 2.685354,-0.53707 1.342676,-1.67834 0.53707,-2.14829 -0.201401,-1.54408 -1.476944,-2.28255 z"
           id="path64" /><path
           style="stroke-width:0.396875;stroke-dasharray:none;paint-order:markers stroke fill"
           d="m 96.60556,104.72875 1.544076,-1.00701 0.738474,0.20141 0.134268,3.15528 0.469937,1.94689 0.805605,2.55108 -0.604204,2.14828 -1.54408,-0.73847 -2.618218,-0.67134 0.06713,-2.28255 0.06713,-1.40981 0.738473,-1.54408 z"
           id="path65" /></g><g
         id="glutes" class="muscle"><path
           style="stroke-width:0.396875;stroke-dasharray:none;paint-order:markers stroke fill"
           d="m 70.087703,111.50927 h 2.148282 l 0.805606,-1.40981 1.678345,-1.20841 0.805606,1.07414 2.014013,1.40981 1.342679,3.42382 0.201401,2.95389 0.268533,2.14828 -4.363696,0.20141 -2.685354,0.4028 -2.349683,2.68535 -1.342675,1.47695 v 1.87974 l -2.416818,0.46994 -1.678345,0.0671 0.268534,-3.75949 0.268536,-3.7595 0.939874,-3.35669 0.872739,-2.61821 2.081149,-0.46994 z"
           id="path66" /><path
           style="stroke-width:0.396875;stroke-dasharray:none;paint-order:markers stroke fill"
           d="m 90.832053,112.11347 2.819619,0.46994 2.953888,0.53707 3.088156,0.93987 0.671334,1.67835 0.26854,2.14828 0.33567,2.68535 0.8056,4.02803 -0.87274,1.54408 -2.483947,-0.67134 -1.342676,-2.68535 -1.678345,-2.41682 -2.685354,-0.67134 -3.02102,-0.73847 -2.483954,-0.53707 0.537073,-2.14828 1.275543,-2.68535 z"
           id="path67" /><path
           style="stroke-width:0.396875;stroke-dasharray:none;paint-order:markers stroke fill"
           d="m 79.083635,120.63947 -4.162298,0.0671 -2.752487,1.007 -2.81962,2.68536 -0.268533,1.81261 v 3.15529 2.68535 l 0.2014,3.69236 -1.007006,2.61822 -0.671338,2.95389 -0.537073,2.55109 -0.335669,1.94688 1.342676,1.07414 2.819622,-1.07414 3.021021,0.33566 1.879748,-1.40981 h 3.759494 l 1.745477,-1.74547 1.476944,-1.27555 0.469937,-3.08815 -0.268534,-4.90077 0.201401,-5.10217 -0.402804,-4.1623 -1.409809,-1.61121 -1.342678,-1.54408 z"
           id="path68" /><path
           style="stroke-width:0.396875;stroke-dasharray:none;paint-order:markers stroke fill"
           d="m 86.73689,119.49819 2.752484,-0.0671 3.558093,1.007 2.28255,1.00701 1.409811,2.34968 1.141275,1.87975 -0.201404,1.74548 -0.402801,2.48395 -0.134268,2.88676 0.469937,2.41681 -0.402802,4.29657 0.402802,2.48395 0.604205,1.54408 -0.201401,2.34968 -0.537073,0.87274 -2.752486,-2.08115 -2.953888,-0.2014 -2.215415,0.33567 -3.088155,0.0671 -0.939874,-1.94688 -1.141275,-1.87974 -0.738471,-1.94689 0.604203,-1.67834 -0.06713,-2.88675 v -3.69237 l -0.402804,-4.49796 0.67134,-3.28956 z"
           id="path69" /></g><g
         id="hamstrings" class="muscle"><path
           style="stroke-width:0.396875;stroke-dasharray:none;paint-order:markers stroke fill"
           d="m 64.560256,127.69639 3.987543,-0.75954 0.379767,2.75331 -0.284824,4.55719 -1.044358,5.12685 -2.088713,4.93696 1.139298,3.22801 -1.424122,2.94319 -0.759534,4.08249 -0.379767,4.55719 0.284827,4.36731 -0.189884,3.70272 0.189884,6.45603 0.474707,3.70272 v 0.85447 l -2.848247,-3.70272 -1.044356,-3.98754 -1.424125,-4.5572 v -7.12061 l -0.189883,-6.45603 1.044358,-5.50661 1.234241,-4.36731 1.139299,-2.18366 1.139298,-5.12684 z"
           id="path70" /><path
           style="stroke-width:0.396875;stroke-dasharray:none;paint-order:markers stroke fill"
           d="m 98.359448,125.79755 1.519063,0.75954 1.424129,0.0949 0.85447,4.08249 1.32918,2.84824 -0.47471,3.79767 1.51907,6.83579 0.75953,5.12684 0.85447,5.41167 -0.66459,6.55097 -0.94941,4.46225 -0.94942,4.65213 -1.42412,3.51284 -0.75953,-1.51906 0.0949,-5.88638 v -6.1712 l 0.66459,-5.41167 -0.85447,-3.22801 -2.08872,-2.65836 -1.519063,-2.08872 1.329182,-1.99377 -0.854474,-3.32295 0.284824,-4.84203 -0.379767,-5.31672 -0.379765,-4.08249 z"
           id="path71" /><path
           style="stroke-width:0.396875;stroke-dasharray:none;paint-order:markers stroke fill"
           d="m 85.827162,144.97575 2.753305,0.66459 2.563423,-0.18988 0.664591,2.46848 0.569648,5.12684 0.09494,3.51284 0.284826,6.07626 -0.284826,4.08248 0.759534,2.65837 -0.949415,3.13307 -0.759534,2.7533 -2.848245,-0.66459 v -3.70272 l -1.234242,-2.56342 -0.854474,-6.36108 -0.949415,-6.1712 0.379767,-5.41167 z"
           id="path72" /><path
           style="stroke-width:0.396875;stroke-dasharray:none;paint-order:markers stroke fill"
           d="m 99.024039,149.91271 -2.848247,-3.32295 -2.088714,-1.23425 -2.088716,0.0949 0.379767,2.46848 0.189884,3.70272 0.664591,5.31673 0.09494,4.74707 -0.284824,4.46226 1.044358,2.94318 -0.379767,3.32296 0.949415,4.55719 1.329182,4.17743 1.898833,1.61401 0.474707,-2.46848 -1.708949,-7.02568 1.044358,-4.08249 0.949415,0.85448 0.569648,4.65213 0.09494,3.89261 1.1393,2.56342 1.1393,-1.23424 0.66459,-4.46225 -1.51906,-3.60778 -0.0949,-7.3105 0.28482,-5.79144 0.37977,-3.60777 -0.85448,-3.32296 z"
           id="path73" /><path
           style="stroke-width:0.396875;stroke-dasharray:none;paint-order:markers stroke fill"
           d="m 73.48476,146.77964 -2.563421,-0.56965 -1.708949,0.75953 -2.278597,0.66459 -1.329182,5.41167 -0.284824,3.70272 -0.284823,3.98755 -0.284827,4.93696 0.189883,2.7533 0.569651,5.79144 0.284824,2.94318 -1.044358,2.08872 v 2.37354 l 0.47471,2.18365 1.424122,-2.18365 0.664591,-5.31673 -0.664591,-4.55719 1.424123,-0.94942 0.09494,2.56342 v 3.32296 l -0.47471,2.46848 0.284826,2.08871 h 1.329182 l 1.044356,-2.94319 1.044358,-3.60778 -0.09494,-4.55719 0.664589,-3.70272 0.949417,-3.98755 0.474708,-3.60777 -0.189884,-6.07626 0.759532,-3.51284 z"
           id="path74" /><path
           style="stroke-width:0.396875;stroke-dasharray:none;paint-order:markers stroke fill"
           d="m 75.953241,145.35551 h 2.753304 l 0.949418,1.23425 0.474707,3.60778 -0.474707,3.51283 v 4.84202 l -0.664591,3.79766 v 3.22802 l -1.614009,1.04435 -0.379764,3.89261 -1.139299,1.80389 -1.044358,-1.80389 -1.803889,-3.13307 -0.189884,-4.08249 1.234242,-4.5572 v -3.41789 l 0.09494,-4.46225 0.759534,-3.79767 z"
           id="path75" /><path
           style="stroke-width:0.396875;stroke-dasharray:none;paint-order:markers stroke fill"
           d="m 74.787068,183.27531 h 1.678348 l 0.402801,-2.14828 c 0,0 0.06714,-4.09516 0,-4.69937 -0.06713,-0.6042 -0.73847,-3.49095 -0.73847,-3.49095 0,0 -1.544079,-1.61121 -1.678347,-1.94688 -0.134266,-0.33567 -2.215415,-3.49096 -2.215415,-3.49096 l -0.402804,2.68535 -0.268534,3.22242 0.134268,3.42383 -1.007009,1.74548 0.67134,2.81962 1.275541,1.00701 z"
           id="path76" /><path
           style="stroke-width:0.396875;stroke-dasharray:none;paint-order:markers stroke fill"
           d="m 90.630649,177.70321 0.738473,-1.27555 0.604205,-1.94688 1.07414,-1.87974 0.402804,1.34267 0.805606,3.28956 0.53707,2.48395 -0.201401,2.75249 -1.074142,1.81261 -2.28255,-0.13427 -0.872739,-2.34968 z"
           id="path77" /></g><path class="muscle"
         style="stroke-width:0.396875;stroke-dasharray:none;paint-order:markers stroke fill"
         d="m 87.868407,176.06911 0.284824,-2.6109 -0.284824,-2.94318 -1.329182,-5.07938 -0.759534,-6.40855 -0.569648,-3.27548 0.237352,-3.18055 -0.427235,-2.51595 -2.278597,-0.90194 -2.278597,1.66147 -0.284827,3.27549 -0.09494,3.41789 -0.427236,4.03502 -0.332296,2.46848 -0.427238,3.46537 c 0,0 -0.854475,0.66459 -0.854475,0.85447 0,0.18988 -0.142412,3.94007 -0.142412,3.94007 l 0.09494,1.75642 1.661478,0.71206 2.563421,0.47471 -0.474708,-3.0856 0.569648,-5.50661 0.04747,-3.37042 0.427238,-1.51907 0.759532,1.18677 0.332295,1.89883 -0.569651,2.13619 0.474708,3.51283 0.284827,3.84514 1.614006,1.04435 z"
         id="adductors_b" /><g
         id="calves_b" class="muscle"><path
           style="stroke-width:0.396875;stroke-dasharray:none;paint-order:markers stroke fill"
           d="m 67.123677,185.70567 1.519065,-2.46848 h 1.80389 l 0.474707,1.42413 1.329182,-0.47471 v -1.23424 l 2.563421,0.66459 0.759532,2.56342 0.949417,2.2786 -1.139298,2.84825 1.139298,3.98754 1.234239,1.99377 0.759534,4.93697 0.284824,4.36731 -0.56965,4.27237 -1.80389,3.60777 -1.708946,2.18366 -2.848248,-0.94941 -1.234239,-2.08872 -3.133071,2.46848 -2.278597,-0.56965 -3.512838,-2.84825 -1.614006,-5.60155 v -5.22178 l 1.519065,-5.79144 3.512836,-6.07626 z"
           id="path78" /><path
           style="stroke-width:0.396875;stroke-dasharray:none;paint-order:markers stroke fill"
           d="m 91.238831,186.08544 1.708949,-0.66459 1.614006,-0.18988 0.759531,1.51906 0.854475,0.18989 0.664591,-2.75331 1.89883,-0.28483 0.854474,2.08872 0.854473,1.70895 3.03813,6.83579 1.89883,5.60155 0.56965,4.36731 0.37977,5.31673 -1.99378,2.46848 -1.99377,0.56965 -1.42412,2.94319 -2.943189,-0.28483 -0.854474,-2.18365 -2.278597,0.75953 -2.37354,1.99377 -2.088714,-2.65836 -2.278597,-4.5572 -0.569647,-5.41167 1.519062,-5.5066 1.519066,-3.03814 -0.379767,-5.98131 z"
           id="path79" /><path
           style="stroke-width:0.396875;stroke-dasharray:none;paint-order:markers stroke fill"
           d="m 62.756367,214.28308 4.46225,2.46848 v 2.08871 l 0.759534,3.4179 0.949415,3.89261 -2.658364,-1.80389 -1.803889,-2.37354 z"
           id="path80" /><path
           style="stroke-width:0.396875;stroke-dasharray:none;paint-order:markers stroke fill"
           d="m 74.908885,216.75156 1.708947,-1.99377 1.139298,-1.42412 -0.379767,3.70272 -0.379764,4.08248 -1.519066,4.46226 -1.234239,-3.13308 z"
           id="path81" /><path
           style="stroke-width:0.396875;stroke-dasharray:none;paint-order:markers stroke fill"
           d="m 89.245058,213.99826 3.512838,2.94318 -0.56965,5.12685 0.854474,2.7533 -0.09494,4.08249 -1.708949,-0.0949 -0.949415,-6.36109 z"
           id="path82" /><path
           style="stroke-width:0.396875;stroke-dasharray:none;paint-order:markers stroke fill"
           d="m 99.68863,216.27685 1.99377,-0.56964 0.85448,-2.18366 2.56342,-0.94942 -0.47471,2.65837 -2.08871,3.79766 -0.85448,3.51284 -0.94941,2.08871 -2.088718,1.51907 -0.854474,-0.85448 z"
           id="path83" /><path
           style="stroke-width:0.396875;stroke-dasharray:none;paint-order:markers stroke fill"
           d="m 65.414728,225.48618 4.082486,2.37354 0.664591,3.98755 1.139301,9.96886 c 0,0 -1.803892,1.1393 -1.803892,0.47471 0,-0.66459 -2.278597,-8.82957 -2.278597,-8.82957 z"
           id="path84" /><path
           style="stroke-width:0.396875;stroke-dasharray:none;paint-order:markers stroke fill"
           d="m 97.694857,227.5749 3.417893,-2.56342 -1.139296,3.79766 -0.56965,6.07626 -0.949415,4.17743 c 0,0 -1.044358,4.84202 -1.139299,4.36731 -0.09494,-0.47471 -1.614006,-1.70895 -1.614006,-1.70895 l 0.664591,-7.02567 z"
           id="path85" /></g><g
         id="neck_b" class="muscle"><path
           style="stroke-width:0.396875;stroke-dasharray:none;paint-order:markers stroke fill"
           d="m 75.861211,41.085894 1.476944,-0.469937 1.74548,-1.007007 -0.268537,2.551086 -0.872738,2.551083 0.2014,3.558093 -2.618218,1.611212 -0.134268,-2.685351 z"
           id="path86" /><path
           style="stroke-width:0.396875;stroke-dasharray:none;paint-order:markers stroke fill"
           d="m 88.683768,39.676085 c 0.06714,0.268534 2.483953,1.342676 2.483953,1.342676 l 0.402802,4.430832 0.402804,4.497966 -0.268536,1.07414 -1.611212,-1.812613 -0.268536,-2.953887 -1.007007,-2.416818 z"
           id="path87" /></g></g></g><g
     id="front-view"
     style="display:inline"><path
       class="outline-human"
       style="display:inline;stroke-width:0.396875;stroke-dasharray:none;paint-order:markers stroke fill"
       d="m 79.822105,19.938743 5.706375,0.201401 2.953887,0.738472 2.618219,2.618219 2.148282,3.759495 0.537072,1.745477 0.201401,2.685354 -1.007007,2.551083 -0.134268,2.819623 1.07414,1.409808 -0.134266,2.215417 -0.872741,1.544077 0.06713,2.28255 -1.342676,1.678347 0.134266,2.416815 0.805606,4.833636 6.914785,4.162295 6.51197,6.075611 3.6588,0.369237 5.63924,2.651784 3.18885,4.833636 -0.1007,4.464399 0.0336,5.504973 0.77204,2.450383 4.6658,9.264468 -0.83917,8.542777 2.60143,6.31058 0.88952,5.87421 0.88953,6.02526 -0.25175,6.05882 -0.85596,4.98469 -0.0503,1.17484 -0.50351,1.67835 v 3.96089 l 0.33567,3.42383 2.08115,7.51898 -0.4028,1.94688 -2.14828,3.9609 -1.61122,0.93987 -3.42382,-0.0671 -3.28956,-1.27554 -0.87274,-0.46994 -2.68535,0.26853 -0.6042,-1.61121 0.67134,-1.27554 0.33566,-2.88675 0.73848,-1.67835 0.13426,-3.35669 3.62523,-5.1693 -0.53707,-3.28956 -1.73751,-7.39314 -1.55205,-3.38184 -3.25599,-3.28955 -0.2014,-2.45039 -0.97344,-3.52452 0.53707,-6.44485 -3.08815,-4.22943 -2.01402,-3.05459 -1.40981,-0.5035 -2.45038,2.78605 -1.37625,2.01401 -0.2014,7.9218 -0.0671,2.85318 -0.402799,2.92032 3.591659,5.43784 -0.0336,5.77351 0.46994,1.94688 0.8056,3.22242 -0.16783,5.70638 0.1007,4.1623 1.34267,3.69235 1.40981,3.3567 0.97345,5.1693 0.1007,2.31612 0.3021,6.54554 -1.64478,7.48542 -0.43637,3.5581 -2.21542,4.06159 -2.24898,1.98045 -1.04057,2.71892 0.1007,3.12172 1.17484,3.9609 2.88675,9.49943 0.33567,5.94134 -0.3021,5.20287 -0.67134,3.22243 -3.33117,11.41355 -1.519064,6.36109 -0.09494,7.02567 1.139294,3.89261 2.37354,3.70272 4.17743,1.99377 1.23424,1.61401 -1.32918,1.614 -5.50662,0.47471 -3.133062,-0.75953 -6.266143,-1.1393 -1.139299,-1.70895 0.854475,-4.65214 -0.09494,-3.22801 -0.379767,-2.46848 1.424123,-2.84825 -1.376651,-4.50972 0.284824,-4.08248 -1.661478,-4.12996 -0.617119,-3.46537 v -2.08871 l -1.756418,-4.74708 c 0,0 -0.807003,-4.79455 -0.807003,-4.98443 0,-0.18989 0.284824,-6.40856 0.284824,-6.40856 l 1.471594,-6.59844 0.284824,-3.03812 -2.088714,-6.74085 0.379768,-4.5572 -1.80389,-3.4179 -0.854474,-7.40543 0.04747,-3.56031 v -2.70584 l -0.237352,-2.27859 -0.522179,-0.6646 -0.854475,1.23424 -0.474707,1.75642 0.142412,3.03813 -0.237352,10.58598 -1.471594,4.5572 0.474707,3.8926 -2.46848,4.2249 -0.09494,3.03813 0.474708,1.75642 2.373537,4.27237 0.854475,2.32607 -0.04747,5.60155 0.04747,3.65525 -1.519066,3.46537 -1.471594,4.27237 0.04747,3.5603 -1.18677,3.65525 -0.332296,5.88638 0.901946,5.55408 0.189881,4.31984 -0.427236,1.99377 1.661478,3.4179 -0.04747,3.22801 -1.482415,1.72719 -19.200273,-0.40281 -0.268536,-2.28255 2.28255,-1.47694 5.504973,-1.61121 2.953888,-3.7595 1.476944,-3.49096 c 0,0 -0.268534,-3.75949 -0.402802,-4.29656 -0.134268,-0.53707 -2.014016,-10.20434 -2.014016,-10.20434 l -0.805606,-7.11618 -3.222421,-8.19033 -1.476944,-8.7274 1.208408,-8.45885 2.953887,-5.77351 -2.014013,-4.83364 -3.625226,-4.29656 c 0,0 -1.879748,-2.95389 -1.879748,-3.35669 0,-0.4028 -1.07414,-3.28956 -0.939874,-3.5581 0.134268,-0.26853 -1.342676,-6.1763 -1.342676,-6.1763 l 0.738473,-5.37071 1.208408,-8.19033 1.678345,-7.25045 -0.134266,-8.66026 1.208408,-3.62523 -0.06713,-3.28955 0.402802,-4.1623 2.551086,-4.1623 1.678345,-0.87274 -0.134269,-2.61821 -1.476943,-2.48396 0.06713,-8.39172 -2.349682,-2.48395 c 0,0 -1.208408,-2.21542 -1.208408,-2.48395 0,-0.26854 -0.469937,-1.67835 -0.469937,-1.67835 l -0.939874,-0.2014 -1.946881,2.95388 -1.208407,0.93988 -0.201401,3.22242 -0.469937,2.81962 -0.268537,3.5581 -1.544076,9.19733 -3.759494,3.55809 -1.946881,4.49796 -0.469937,2.41682 0.402802,2.88676 2.416818,3.62522 0.604205,6.91478 1.141275,1.74548 0.469937,2.08115 -1.141275,1.34268 -4.632235,3.08816 -4.497964,-0.20141 -3.893762,-5.90777 0.402802,-3.02102 0.872741,-4.49797 0.06713,-7.38472 0.53707,-2.95389 -1.141275,-3.89376 -0.335669,-7.45185 0.939874,-5.97491 0.805606,-9.26447 2.48395,-2.55108 0.201404,-3.155291 1.208408,-10.271474 1.74548,-4.296564 1.745477,-2.28255 v -6.444847 l 0.537072,-6.981918 3.826627,-3.759494 4.363699,-1.208407 3.088155,-0.469937 4.632233,-3.826627 4.162295,-1.879748 3.826629,-2.416818 0.939874,-1.208407 0.335669,-4.02803 -0.537072,-3.356689 -2.416818,-1.611212 v -2.148282 l -0.939872,-3.759494 0.872739,-1.812612 0.872739,-1.141275 -1.007007,-1.946881 -0.06713,-5.974911 2.014014,-3.826626 3.222424,-2.618219 z"
       id="outline-front" /><g
       id="muscles-front"
       style="display:inline"><path class="muscle"
         style="display:inline;stroke-width:0.396875;stroke-dasharray:none;paint-order:markers stroke fill"
         d="m 59.212024,79.620704 1.007007,-1.678344 2.886755,-2.685354 1.208408,-4.430832 1.342678,-1.141275 2.28255,-2.752487 1.544076,-1.544076 3.356692,-0.268536 3.155289,0.06714 2.685351,0.805606 3.021023,1.208407 0.939874,2.81962 0.671338,0.06714 1.07414,-2.215417 1.342675,-1.678344 3.692361,-0.805606 3.289557,-0.53707 3.759494,1.007007 2.014013,1.476944 3.289555,3.356689 4.3637,4.5651 2.75249,2.014014 1.81261,1.544078 -0.6042,2.215417 -2.55109,0.134266 -3.22242,2.349685 -0.93988,1.946881 -2.01401,2.483951 -3.423825,1.275543 -4.028029,0.805606 h -3.960895 l -2.886752,-0.805606 -2.886755,-2.551086 -0.53707,-1.342676 -0.939874,-0.134268 -0.268536,1.476944 -0.872739,1.409811 -1.141275,1.611212 -4.363699,1.007007 -5.773505,-0.134269 -4.028032,-0.872738 -2.48395,-1.879749 -0.872739,-1.74548 -2.014016,-2.551083 c 0,0 -0.268534,-1.544079 -0.53707,-1.74548 -0.268533,-0.201401 -1.074141,-1.007007 -1.074141,-1.007007 z"
         id="chest" /><g
         id="biceps" class="muscle"
         style="display:inline"><path
           style="stroke-width:0.396875;stroke-dasharray:none;paint-order:markers stroke fill"
           d="m 107.54837,83.111662 0.80561,-1.275541 2.41682,-0.06714 1.14127,-1.544077 h 1.00701 l 0.67134,1.275543 0.67133,2.618219 0.0671,3.021021 1.54407,0.671337 0.73848,2.685355 0.6042,3.02102 0.0671,2.953888 0.53708,2.752486 -1.07415,3.289557 -0.6042,3.42383 -0.87274,1.27554 -1.87975,-0.0671 -1.54407,-4.49797 -2.01402,-6.109178 -1.14127,-5.169305 -0.80561,-5.907775 z"
           id="path22" /><path
           style="stroke-width:0.396875;stroke-dasharray:none;paint-order:markers stroke fill"
           d="m 104.12455,85.125678 1.007,-1.275543 1.54408,-0.268536 0.87274,0.469937 0.33567,5.504973 0.80561,2.81962 1.14127,5.572106 1.67793,4.256345 0.94942,2.89572 0.94941,2.46848 -0.52218,0.28482 -0.85447,-0.28482 -2.08871,-1.89883 -2.37354,-2.80078 -1.89883,-4.082486 -0.28483,-1.89883 -0.66459,-3.180543 -0.0949,-2.278597 -0.42724,-3.180543 -0.37976,-1.661477 z"
           id="path23" /><path
           style="stroke-width:0.396875;stroke-dasharray:none;paint-order:markers stroke fill"
           d="m 56.062985,82.0295 -1.471594,0.996887 -0.949415,1.329182 -1.044358,1.993772 -1.139298,1.471594 -0.901944,2.800776 -0.189883,2.563421 -0.61712,2.326069 0.61712,2.46848 0.142412,1.376654 0.617119,0.807005 0.237355,1.75642 0.61712,0.94941 0.664591,0.71206 h 1.28171 l 0.664591,-2.37354 1.09183,-4.082483 0.949415,-3.750191 0.901943,-3.892603 0.379767,-2.610892 1.329182,-1.70895 0.949415,-0.949414 -0.189883,-1.661478 -1.044356,-1.18677 h -1.18677 z"
           id="path24" /><path
           style="stroke-width:0.396875;stroke-dasharray:none;paint-order:markers stroke fill"
           d="m 60.715122,84.355569 0.807003,1.234238 1.18677,1.614009 0.284824,0.996886 -0.996886,1.993771 0.332295,1.803889 -0.237352,1.946304 -0.712063,2.183654 -0.142412,2.421009 -0.427238,1.519061 -0.901944,1.75643 -1.89883,1.28171 -0.949417,0.75953 -1.993773,0.0949 -0.807003,-0.42724 0.522179,-1.99377 1.18677,-4.082488 0.759531,-3.797662 0.949418,-3.512836 0.474707,-3.370427 1.471594,-1.37665 z"
           id="path25" /></g><g
         id="shoulders_f" class="muscle"><path
           style="stroke-width:0.396875;stroke-dasharray:none;paint-order:markers stroke fill"
           d="m 52.96858,84.857142 -1.544077,0.134268 -0.537072,-1.074142 -0.402802,-1.07414 v -6.780516 l -0.06714,-5.10217 1.342678,-2.685351 1.275541,-1.946881 1.879748,-1.476944 3.625225,-0.872741 3.423825,0.268536 -0.604205,1.074142 -1.812613,1.342676 -1.946881,2.685351 -0.671338,3.356692 -0.872738,2.81962 -0.469937,2.48395 -0.201401,2.349686 -0.06714,1.611209 -1.879745,1.678347 z"
           id="path18" /><path
           style="stroke-width:0.396875;stroke-dasharray:none;paint-order:markers stroke fill"
           d="m 62.031644,64.515597 1.611212,-0.201403 1.544079,0.268536 1.208408,0.872738 -0.134269,1.409812 -0.73847,0.872738 -0.604205,1.812613 -0.872739,1.342678 -0.402804,1.61121 -0.671338,2.282549 -2.483951,1.879749 -1.007007,1.812612 -1.141275,2.081149 -1.879748,0.939874 -0.671338,-0.06713 0.335669,-3.423825 0.537073,-2.953887 0.872739,-2.685352 0.671337,-2.886755 1.476944,-2.28255 1.275543,-1.074142 0.872739,-0.805603 z"
           id="path19" /><path
           style="stroke-width:0.396875;stroke-dasharray:none;paint-order:markers stroke fill"
           d="m 98.485305,64.247061 3.423825,0.335669 2.61822,0.53707 1.94688,0.939874 1.67835,1.678344 1.54407,1.812613 1.27555,1.946881 0.67133,1.678347 0.40281,1.409809 0.93987,2.48395 -0.33567,1.879748 -1.54408,-0.537069 -2.21541,-1.342679 -2.61822,-2.215414 -1.20841,-1.275543 -2.01402,-1.74548 -1.4098,-1.342676 -2.215421,-2.618219 -1.476944,-1.74548 z"
           id="path20" /><path
           style="stroke-width:0.396875;stroke-dasharray:none;paint-order:markers stroke fill"
           d="m 107.4141,64.448462 1.81262,-0.06713 1.94688,0.671338 2.68535,1.544076 1.74548,1.275543 1.20841,2.685354 0.73847,2.28255 0.4028,2.416816 -0.4028,3.960897 v 3.222421 l -0.53707,1.812613 -0.46994,1.544079 -1.07414,1.007007 -0.87274,-0.402805 -0.13427,-3.423822 -0.73847,-2.148284 -0.87274,-1.544077 0.53707,-2.48395 -0.73847,-1.409811 -0.73847,-2.148282 -0.67134,-2.416818 -1.14127,-1.476944 -1.74548,-1.946881 -1.27555,-1.275543 -0.4028,-1.141272 z"
           id="path21" /></g><g
         id="forearms_f" class="muscle"><path
           style="stroke-width:0.396875;stroke-dasharray:none;paint-order:markers stroke fill"
           d="m 118.582,97.789798 h 1.47159 l 1.32918,2.705832 1.61401,3.27549 1.99377,3.98754 0.66459,3.22801 0.18989,2.94319 -0.61712,2.2786 -0.71207,3.03813 -0.85447,1.70895 -0.85447,1.80389 -0.71206,1.66147 -0.75954,2.08872 -0.75953,1.9463 -0.0475,2.13618 -0.33229,2.51596 -0.94942,0.75953 c 0,0 -1.4716,-1.4716 -1.37665,-1.70895 0.0949,-0.23735 0.4747,-1.89883 0.4747,-1.89883 l 0.6646,-3.75019 -0.85448,-2.84825 -1.09183,-2.46848 -1.09183,-3.46537 0.23736,-3.32295 -0.23736,-4.41478 -0.14241,-2.75331 0.56965,-1.66147 1.37665,-3.75019 0.61713,-2.895724 z"
           id="path26" /><path
           style="stroke-width:0.396875;stroke-dasharray:none;paint-order:markers stroke fill"
           d="m 126.08238,114.68939 0.61712,3.60778 0.18988,3.94008 -0.61712,4.98443 -0.33229,2.42101 -0.0475,2.94319 -0.85448,0.14241 c 0,0 -1.37665,-1.42412 -1.37665,-1.70895 0,-0.28482 -0.42724,-4.17743 -0.42724,-4.17743 l -0.42723,-2.65836 0.807,-2.37354 1.32918,-2.65836 0.61712,-2.75331 c 0,0 0.66459,-1.80389 0.52218,-1.70895 z"
           id="path27" /><path
           style="stroke-width:0.396875;stroke-dasharray:none;paint-order:markers stroke fill"
           d="m 119.00924,136.00377 2.56342,0.0475 1.42412,-1.9463 1.09183,-2.23113 -0.807,-1.18676 -0.23736,-2.37354 -0.0949,-2.2786 -0.52218,-0.61712 -0.71206,1.04436 -0.75953,1.70894 0.14241,2.99066 -0.47471,1.75642 -1.04436,1.1393 -0.94941,0.47471 z"
           id="path28" /><path
           style="stroke-width:0.396875;stroke-dasharray:none;paint-order:markers stroke fill"
           d="m 118.48706,126.12985 h -0.94942 l -1.04436,-0.807 c 0,0 -0.0475,-1.4716 -0.14241,-1.66148 -0.0949,-0.18988 -2.65836,-1.42412 -2.65836,-1.42412 l -1.61401,-1.85136 -0.14241,-2.51595 c 0,0 -0.90195,-2.70584 -0.85448,-2.89572 0.0475,-0.18988 -0.0949,-1.85136 -0.0949,-1.85136 l 0.0475,-2.37354 0.28483,-2.56342 h 1.85136 l 1.23424,-0.3323 0.94941,0.42724 0.23736,2.32607 0.37976,2.42101 -0.28482,2.89572 0.0949,3.0856 0.61712,1.18677 0.94942,2.27859 0.85447,2.51595 z"
           id="path29" /><path
           style="stroke-width:0.396875;stroke-dasharray:none;paint-order:markers stroke fill"
           d="m 50.8412,125.46526 1.424125,-1.1393 1.80389,-1.70895 2.088713,-4.36731 v -2.70583 l 0.284824,-3.75019 0.61712,-2.6109 -0.474708,-2.04124 0.759534,-0.99689 0.04747,-2.04124 -2.373537,0.37977 -1.376654,-0.42724 -0.807003,0.14241 -0.474707,1.09183 -0.04747,2.04124 0.427239,2.46848 -0.569651,2.70584 -0.04747,2.32607 -0.71206,1.04435 -1.376654,2.46848 -1.091827,2.2786 -0.332295,1.23424 0.04747,2.32607 0.09494,1.1393 1.044358,0.33229 z"
           id="path32" /><path
           style="stroke-width:0.396875;stroke-dasharray:none;paint-order:markers stroke fill"
           d="m 42.011637,114.68939 0.996886,1.42413 0.332295,1.85136 -0.04747,2.08871 0.379767,1.9463 0.759531,1.56654 0.189884,2.18366 -0.189884,2.13618 0.189884,1.70895 0.332295,1.28171 0.759532,1.04436 0.664591,0.90194 1.044358,1.04436 0.142412,1.56653 -0.569648,0.23736 -1.614009,-1.1393 -2.278597,-2.70584 -0.996886,-2.56342 -0.901943,-3.75019 0.189883,-7.45291 0.284824,-2.42101 z"
           id="path31" /><path
           style="stroke-width:0.396875;stroke-dasharray:none;paint-order:markers stroke fill"
           d="m 49.322135,95.843496 -0.949415,0.949415 -1.139299,1.566537 -0.901943,0.522177 -0.379767,1.898835 -0.284824,1.9463 -2.326069,2.13618 -0.56965,3.13307 -0.332296,2.51596 -0.142412,3.13307 0.617123,1.70894 0.854471,2.18366 -0.284824,2.32607 0.522179,1.85136 0.807003,2.23113 v 3.79766 l 0.427236,2.89571 1.898833,2.80078 0.854474,-0.61712 0.379765,-2.80077 0.04747,-2.2786 0.04747,-3.89261 -0.142412,-2.51595 1.139298,-2.89572 2.373538,-3.79766 c 0,0 0.189883,-3.46536 0.332295,-3.65525 0.142412,-0.18988 0.189884,-2.51595 0.189884,-2.51595 l -0.427236,-1.85136 0.522176,-2.08871 -0.664591,-1.09183 -0.854472,-1.28171 -0.189883,-1.61401 -0.949415,-1.946299 0.04747,-1.946302 z"
           id="path30" /></g><g
         id="obliques_f" class="muscle"><path
           style="stroke-width:0.396875;stroke-dasharray:none;paint-order:markers stroke fill"
           d="m 103.18467,87.341092 0.80561,1.074143 v 2.282549 2.349683 l 0.73847,2.081149 0.13427,2.416818 -0.73847,2.551086 c 0,0 -2.01402,1.27554 -2.28255,1.47694 -0.26854,0.2014 -1.946884,2.34969 -1.946884,2.34969 l 0.201404,2.48395 -0.46994,1.40981 0.335669,6.17631 -0.53707,1.54408 -0.268533,2.55108 -0.805606,0.87274 -0.872742,1.14128 -2.416817,0.33566 -1.745478,1.94689 -1.946881,-0.20141 0.201401,-4.02803 v -3.49096 -9.06306 l 0.604205,-1.47694 0.738471,-2.34969 0.134268,-1.946876 0.469937,-1.812613 -0.671338,-2.215417 0.268536,-3.155289 0.53707,-2.081149 3.423825,-0.604205 2.685351,-0.469937 2.349682,-1.342676 z"
           id="oblique_l" /><path
           style="stroke-width:0.396875;stroke-dasharray:none;paint-order:markers stroke fill"
           d="m 61.561709,97.948235 0.53707,-2.551083 0.671338,-2.28255 -0.06713,-2.685354 0.402802,-1.946881 1.409811,0.939874 1.879746,1.007007 1.476943,1.007007 3.49096,0.738473 2.416816,-0.134268 0.537072,0.738473 -1.20841,1.342676 -0.134268,2.752487 -0.06713,3.490954 0.805606,2.34969 0.805606,2.08114 0.469937,3.3567 -0.134268,4.43083 -0.939874,1.00701 0.134268,8.39172 h -1.074142 l -1.61121,-1.20841 -3.960897,-3.75949 -0.805606,-2.08115 0.134268,-7.98892 -1.812612,-2.08115 -1.544077,-1.47695 -0.335669,-2.01401 z"
           id="oblique_r" /></g><path class="muscle"
         style="stroke-width:0.396875;stroke-dasharray:none;paint-order:markers stroke fill"
         d="m 83.581599,87.945298 c 2.322034,2.573432 6.473924,2.238735 9.062304,3.238911 -0.02553,3.432388 -0.91818,6.814974 -0.485737,10.255961 -1.85455,3.62457 -1.398806,7.43781 -1.026031,11.3086 0.03603,3.81456 -0.375961,7.56556 -1.324168,11.26256 -0.468631,3.00189 -0.995418,5.97404 -1.419918,8.9858 -0.325849,3.4151 -4.204426,3.59131 -6.818683,3.15261 -2.113245,-1.03296 -1.473692,-4.1492 -2.721328,-6.03376 -0.875047,-2.71516 -2.042682,-5.34506 -2.855736,-8.06495 0.418483,-3.24067 -1.938832,-6.05728 -1.062424,-9.23332 1.282363,-3.47947 0.579702,-7.21208 -0.866022,-10.5164 -0.7411,-3.02348 -0.637195,-6.555821 0.699923,-9.395812 2.011982,-2.324939 6.317172,-1.804248 7.444029,-5.111024 0.465353,-0.277563 0.900178,0.202334 1.373791,0.150824 z"
         id="abdomnials" /><path class="muscle"
         style="stroke-width:0.396875;stroke-dasharray:none;paint-order:markers stroke fill"
         d="m 79.56102,136.71583 c -0.289244,3.11017 -3.858287,5.76421 -1.840456,9.01517 1.011562,3.771 1.337622,7.70699 2.733482,11.37968 0.706362,2.15183 1.661784,6.37754 2.57681,7.1224 0.458125,-4.9741 -0.829735,-9.92137 -0.389695,-14.9048 -0.0094,-1.15921 0.194564,-6.29018 0.988181,-3.24266 1.064995,5.90354 0.699434,11.94057 1.438285,17.87844 2.253023,0.0381 0.738135,-4.3029 1.756213,-5.89098 0.73506,-4.65614 1.552785,-9.2987 2.381954,-13.93885 1.199502,-2.45421 -1.554137,-5.07173 -2.315506,-6.95927 -2.45847,-0.44752 -5.256642,1.87539 -7.329268,-0.45913 z"
         id="adductors_f" /><g
         id="quads" class="muscle"><path
           style="stroke-width:0.396875;stroke-dasharray:none;paint-order:markers stroke fill"
           d="m 69.21239,130.35475 0.569651,3.13307 1.424122,3.22801 1.424123,3.4179 1.803889,3.8926 0.284827,2.94319 0.854472,3.79766 -0.379765,6.8358 -0.379767,2.56342 -1.993773,3.32295 -1.234239,3.70272 -0.759534,3.22801 v 1.42413 H 69.11745 l -0.379767,-1.80389 -1.329182,-2.94319 -1.424123,-4.27237 -0.189883,-2.7533 -0.664591,-2.2786 0.284824,-2.46848 -0.759532,-4.36731 -0.474707,-1.89883 0.189884,-3.51284 0.759531,-3.22801 1.139298,-3.13308 0.759534,-3.13307 1.044356,-3.41789 z"
           id="path6" /><path
           style="stroke-width:0.396875;stroke-dasharray:none;paint-order:markers stroke fill"
           d="m 97.504974,128.26603 0.284824,1.89884 1.424122,2.27859 1.70895,3.79767 1.04436,2.27859 0.56965,3.22802 -0.28483,4.84202 -0.0949,5.22178 -0.37977,2.84825 0.18989,2.84824 -0.75954,2.08872 -0.4747,2.46848 -0.759536,3.03813 -1.234241,2.08871 -0.189884,1.89883 -0.474707,1.32918 -1.424123,0.0949 0.284824,-3.22802 -1.139298,-2.7533 -1.708947,-4.84202 -2.088716,-5.12684 -1.139298,-4.84202 0.664591,-3.03813 0.379767,-3.60778 1.234239,-3.4179 1.424125,-3.03813 1.519065,-3.22801 0.664589,-3.03813 z"
           id="path7" /><path
           style="stroke-width:0.396875;stroke-dasharray:none;paint-order:markers stroke fill"
           d="m 63.515898,147.06446 h -1.329182 l -0.379767,3.03813 -0.759531,3.79766 -0.569651,3.13308 -0.759531,3.60777 -0.379767,2.94319 0.09494,3.51284 0.664591,3.22801 0.664591,1.51907 -0.09494,1.80389 0.949417,1.99377 1.519063,3.32295 1.234242,1.70895 2.278596,1.99378 2.183657,-0.37977 0.664588,-2.08872 0.569651,-3.13307 -0.474708,-3.41789 -0.949415,-1.51907 -0.949417,-3.32295 -1.234239,-1.89883 -1.329182,-4.36731 0.189883,-2.37354 -0.949414,-3.13307 0.379764,-2.56343 -0.759532,-3.60777 -0.189883,-2.18366 z"
           id="path8" /><path
           style="stroke-width:0.396875;stroke-dasharray:none;paint-order:markers stroke fill"
           d="m 103.01158,144.50104 1.32918,1.51907 0.6646,1.614 0.28482,2.56343 1.51906,2.46848 0.75954,5.22178 0.66459,3.60778 -0.18988,4.55719 -0.94942,5.79144 -0.85447,3.79766 -0.66459,3.22801 -2.56343,2.65837 -2.65836,0.56964 -2.088715,-1.23423 -0.284824,-4.5572 v -4.27237 l 0.569648,-2.08871 0.664591,-2.37354 1.61401,-3.4179 0.75953,-3.22801 0.56965,-2.46848 0.18988,-1.99377 -0.28482,-1.51907 0.47471,-2.94319 v -2.46848 -2.37354 z"
           id="path9" /><path
           style="stroke-width:0.396875;stroke-dasharray:none;paint-order:markers stroke fill"
           d="m 75.8583,152.66602 1.329182,3.22801 1.139299,3.79766 1.708946,3.70272 1.234242,2.94319 1.329182,2.56342 -0.09494,5.50661 -0.09494,4.46225 -0.759534,2.65837 -1.139298,3.13307 -1.519063,0.94941 -3.322955,-0.85447 -2.183657,-2.46848 -2.088713,-2.94319 -0.569651,-2.84825 v -3.79766 l 0.569651,-2.65836 0.759531,-3.03813 1.044358,-2.56342 0.759532,-2.2786 1.519065,-1.80389 0.284824,-5.31673 z"
           id="path10" /><path
           style="stroke-width:0.396875;stroke-dasharray:none;paint-order:markers stroke fill"
           d="m 90.57424,151.05201 0.474707,2.37354 0.949415,2.84824 1.519066,3.13308 1.898832,5.5066 0.854472,2.56343 -0.09494,2.84824 1.044358,1.61401 -0.284827,3.41789 -0.09494,2.18366 -0.949415,2.37354 -0.379767,2.08871 -1.329182,0.85448 -0.284824,2.84824 -1.139299,1.04436 -3.702722,-3.03813 -2.183653,-2.84824 -0.949418,-2.94319 -0.379764,-4.36732 -0.189884,-4.84201 0.189884,-1.89884 1.614005,-1.80388 0.854475,-5.03191 0.474707,-3.22801 0.474708,-3.03813 z"
           id="path11" /></g><g
         id="calves_f" class="muscle"><path
           style="stroke-width:0.396875;stroke-dasharray:none;paint-order:markers stroke fill"
           d="m 69.11745,187.88933 0.379764,2.94319 0.284827,2.08871 0.854474,1.80389 -1.234241,3.13307 -0.379767,5.50661 0.854474,7.40545 1.044358,4.93696 0.474708,4.55719 0.284824,3.13307 0.664591,2.84825 0.664591,3.13307 -0.664591,0.94941 -1.139299,-4.17742 -0.949415,-4.5572 -0.854474,-3.51284 -2.848248,-5.12684 -2.088713,-7.3105 0.189883,-5.22178 0.854475,-4.08249 2.088713,-5.50661 z"
           id="path12" /><path
           style="stroke-width:0.396875;stroke-dasharray:none;paint-order:markers stroke fill"
           d="m 101.49252,191.97182 0.85447,3.41789 1.42413,4.84202 1.23424,3.89261 0.18988,5.98131 -0.47471,5.12685 -1.89883,6.07626 -1.42412,3.13307 -1.23424,5.0319 -1.234244,-1.61401 1.044358,-4.36731 1.044356,-7.40544 0.18988,-4.27237 -0.4747,-7.40544 0.18988,-5.0319 -1.23424,-2.84825 0.189881,-3.22801 z"
           id="path13" /><path
           style="stroke-width:0.396875;stroke-dasharray:none;paint-order:markers stroke fill"
           d="m 70.921339,195.67454 1.044356,3.03813 1.329182,5.69649 1.044358,6.83579 -0.284824,3.89261 0.09494,3.03812 -0.759531,2.46848 -0.09494,4.93697 -0.759532,-0.28483 -0.759531,-4.84202 -0.474708,-4.46225 -1.044358,-4.84202 -0.759534,-5.69649 -0.09494,-4.08249 0.759531,-3.8926 z"
           id="path14" /><path
           style="stroke-width:0.396875;stroke-dasharray:none;paint-order:markers stroke fill"
           d="m 99.403804,197.38348 0.759536,2.56343 0.0949,3.22801 0.0949,4.17743 0.28483,3.03813 -0.18989,4.08248 -0.75953,3.13308 v 4.08248 l -0.759534,2.65837 -1.89883,1.614 -0.379767,-5.69649 -0.854474,-3.98755 0.56965,-10.0638 0.759532,-4.36731 z"
           id="path15" /><path
           style="stroke-width:0.396875;stroke-dasharray:none;paint-order:markers stroke fill"
           d="m 78.421721,195.38971 1.234242,3.32296 1.519063,2.18365 0.949417,2.75331 0.379765,4.08248 -0.189884,4.5572 -1.139298,2.56342 -1.234239,3.70272 -0.474708,1.61401 v 3.51284 l -1.139298,3.41789 -0.379767,2.75331 -0.189884,2.27859 0.189884,4.5572 0.854474,2.65836 -2.088713,-0.18988 -0.759534,-3.32296 -0.569648,-4.27237 -0.379767,-6.26614 0.189883,-4.84202 0.189884,-4.65213 0.474707,-2.84825 0.09494,-6.07626 0.09494,-5.0319 0.949415,-4.27237 z"
           id="path16" /><path
           style="stroke-width:0.396875;stroke-dasharray:none;paint-order:markers stroke fill"
           d="m 90.384356,194.4403 1.329182,2.84824 1.898833,3.22802 1.234239,3.32295 -0.189884,9.01945 0.09494,11.77275 0.474708,12.24746 -1.708949,0.47471 -0.949415,-3.32296 0.474707,-4.08248 -1.89883,-3.98755 -1.044358,-3.79766 0.474708,-3.51284 -2.468481,-4.74707 -0.189883,-7.40544 0.379767,-4.36732 1.329182,-4.36731 z"
           id="path17" /></g><g
         id="traps_f" class="muscle"><path
           style="stroke-width:0.396875;stroke-dasharray:none;paint-order:markers stroke fill"
           d="m 75.953241,54.259096 0.284824,1.898832 0.284826,1.80389 -0.996886,1.566534 -0.901946,2.088716 -1.044356,2.278597 -4.794549,0.854472 -3.133071,-0.379764 -3.228012,-0.284827 -0.807003,-0.569648 2.041242,-1.329182 2.278597,-1.756418 1.566537,-1.75642 4.082486,-0.949415 1.661478,-1.376651 z"
           id="path33" /><path
           style="stroke-width:0.396875;stroke-dasharray:none;paint-order:markers stroke fill"
           d="m 92.093305,53.547036 0.996887,1.28171 2.563421,1.519066 3.465367,1.756418 2.99066,2.753304 2.37354,1.946301 1.47159,1.566538 -1.80389,0.332295 -2.65836,-0.284827 -3.987546,-0.427236 -3.512839,-0.04747 -0.142412,-1.708946 -1.091827,-1.756421 -0.522179,-2.041242 -0.474707,-1.091827 0.04747,-2.705835 z"
           id="path34" /></g><g
         id="neck_f" class="muscle"><path
           style="stroke-width:0.396875;stroke-dasharray:none;paint-order:markers stroke fill"
           d="m 76.143124,49.227194 0.901946,0.901946 1.80389,1.044356 0.617119,1.471594 1.18677,3.607779 0.807003,3.133071 0.664591,2.800776 -0.712062,0.712063 -2.041245,-0.284827 -2.658361,0.09494 -0.522179,-1.614006 0.237352,-2.278597 0.569651,-1.851361 -0.854475,-3.180543 -0.427236,-2.278597 z"
           id="path35" /><path
           style="stroke-width:0.396875;stroke-dasharray:none;paint-order:markers stroke fill"
           d="m 88.438055,49.749373 1.471594,-0.854474 1.28171,-1.18677 0.04747,1.946301 0.379767,3.180543 -0.04747,2.231126 -0.04747,2.183656 -0.284824,1.993773 0.189883,2.136185 -0.901946,0.664591 h -1.661477 l -2.468478,-0.04747 -1.09183,-0.379765 0.474708,-2.041244 0.949418,-2.136185 0.617119,-2.895717 0.474707,-1.708949 0.712063,-2.231125 z"
           id="path36" /><path
           style="stroke-width:0.396875;stroke-dasharray:none;paint-order:markers stroke fill"
           d="m 82.124443,52.977385 -0.759534,2.515952 -0.189883,1.89883 0.807003,2.848248 0.56965,1.993773 -0.664591,0.569647 0.427236,0.949418 -0.142412,1.661475 1.566537,0.56965 1.946302,-0.474707 0.284823,-2.848247 -0.522179,-0.759532 -0.807003,-0.474707 1.139299,-2.515952 0.807003,-1.376654 -0.71206,-1.519063 -0.522179,-1.75642 0.332296,-1.471594 -1.898833,0.284826 z"
           id="path37" /></g><g
         id="triceps_f" class="muscle"><path
           style="stroke-width:0.396875;stroke-dasharray:none;paint-order:markers stroke fill"
           d="m 115.92364,86.966461 0.99688,-0.949415 0.61712,-1.993773 0.66459,-0.427236 0.94942,1.519063 2.23112,3.987546 1.89884,4.36731 -0.52218,3.750194 -0.14242,4.17743 -0.75953,-0.42724 -1.61401,-3.607778 -2.32606,0.189883 -0.28483,-2.183656 -0.33229,-3.607779 -0.75954,-2.705836 z"
           id="path38" /><path
           style="stroke-width:0.396875;stroke-dasharray:none;paint-order:markers stroke fill"
           d="m 49.986726,82.836503 -1.756418,2.326068 -1.708947,2.658364 -0.617122,4.509723 v 2.990659 l 0.04747,2.895719 1.091827,-0.142414 1.329182,-2.136185 1.18677,-0.949415 0.617119,-1.993773 0.142412,-3.038129 1.044358,-2.705835 0.996887,-1.329182 -1.281711,-0.854472 -0.474707,-1.09183 z"
           id="path39" /></g><g
         id="abductors" class="muscle"><path
           style="stroke-width:0.396875;stroke-dasharray:none;paint-order:markers stroke fill"
           d="m 67.738018,120.7066 0.469937,2.81962 -0.73847,2.41682 -0.06714,2.61821 -2.953887,3.3567 -0.53707,-1.27555 0.469937,-4.43083 2.28255,-3.55809 z"
           id="path88" /><path
           style="stroke-width:0.396875;stroke-dasharray:none;paint-order:markers stroke fill"
           d="m 98.753841,122.51921 0.939875,-2.14828 1.544074,2.14828 1.81261,2.41682 -0.26853,4.5651 c 0,0 -0.8056,-1.81261 -1.14127,-2.01402 -0.33567,-0.2014 -2.886759,-4.9679 -2.886759,-4.9679 z"
           id="path89" /></g></g></g></svg>
